<svg width="18" height="18" viewBox="0 0 18 18" fill="none" xmlns="http://www.w3.org/2000/svg">
<g clip-path="url(#clip0_459_2729)">
<path d="M1.13235 4.55966C1.28008 4.55946 1.4264 4.58852 1.56285 4.64516C1.6993 4.7018 1.82318 4.7849 1.92735 4.88966L7.6821 10.6437C7.85621 10.8178 8.06293 10.956 8.29045 11.0502C8.51797 11.1445 8.76183 11.193 9.0081 11.193C9.25437 11.193 9.49822 11.1445 9.72574 11.0502C9.95326 10.956 10.16 10.8178 10.3341 10.6437L16.0798 4.89716C16.1836 4.78971 16.3078 4.70401 16.445 4.64505C16.5823 4.58609 16.7299 4.55505 16.8793 4.55375C17.0286 4.55246 17.1768 4.58092 17.315 4.63749C17.4533 4.69405 17.5789 4.77759 17.6845 4.88322C17.7902 4.98884 17.8737 5.11445 17.9303 5.25271C17.9868 5.39097 18.0153 5.53911 18.014 5.68848C18.0127 5.83786 17.9817 5.98548 17.9227 6.12274C17.8638 6.25999 17.778 6.38413 17.6706 6.48791L11.9248 12.2344C11.1508 13.007 10.1018 13.441 9.0081 13.441C7.91441 13.441 6.86542 13.007 6.09135 12.2344L0.336596 6.48041C0.179159 6.32307 0.0719315 6.12257 0.0284809 5.90428C-0.0149697 5.68598 0.00730993 5.4597 0.0925005 5.25407C0.177691 5.04844 0.321964 4.8727 0.507063 4.74909C0.692162 4.62548 0.909768 4.55956 1.13235 4.55966Z" fill="#A7A7A7"/>
</g>
<defs>
<clipPath id="clip0_459_2729">
<rect width="18" height="18" fill="white"/>
</clipPath>
</defs>
</svg>
