<svg width="22" height="14" viewBox="0 0 22 14" fill="none" xmlns="http://www.w3.org/2000/svg">
<g clip-path="url(#clip0_457_2117)">
<path d="M18.5293 10.3775C18.4751 10.3228 18.4106 10.2794 18.3395 10.2498C18.2684 10.2202 18.1922 10.2049 18.1152 10.2049C18.0381 10.2049 17.9619 10.2202 17.8908 10.2498C17.8197 10.2794 17.7552 10.3228 17.701 10.3775L15.5835 12.495V0.583333C15.5835 0.428624 15.522 0.280251 15.4126 0.170854C15.3032 0.0614581 15.1549 0 15.0002 0V0C14.8454 0 14.6971 0.0614581 14.5877 0.170854C14.4783 0.280251 14.4168 0.428624 14.4168 0.583333V12.4892L12.3052 10.3775C12.2552 10.3091 12.1909 10.2525 12.1168 10.2115C12.0427 10.1705 11.9605 10.1461 11.876 10.14C11.7916 10.134 11.7068 10.1464 11.6276 10.1764C11.5484 10.2064 11.4767 10.2533 11.4174 10.3138C11.3582 10.3744 11.3128 10.4471 11.2845 10.5269C11.2562 10.6067 11.2456 10.6918 11.2535 10.7761C11.2614 10.8604 11.2875 10.942 11.3301 11.0152C11.3727 11.0884 11.4307 11.1515 11.5002 11.2L13.7868 13.4867C14.1149 13.8144 14.5597 13.9985 15.0235 13.9985C15.4872 13.9985 15.932 13.8144 16.2602 13.4867L18.5468 11.2C18.6532 11.0884 18.711 10.9393 18.7078 10.7851C18.7045 10.631 18.6403 10.4845 18.5293 10.3775Z" fill="#ABABAB"/>
</g>
<g clip-path="url(#clip1_457_2117)">
<path d="M10.5293 3.6225C10.4751 3.67718 10.4106 3.72058 10.3395 3.75019C10.2684 3.77981 10.1922 3.79505 10.1152 3.79505C10.0381 3.79505 9.9619 3.77981 9.89082 3.75019C9.81973 3.72058 9.75522 3.67718 9.70099 3.6225L7.58349 1.505V13.4167C7.58349 13.5714 7.52203 13.7197 7.41263 13.8291C7.30324 13.9385 7.15486 14 7.00015 14V14C6.84544 14 6.69707 13.9385 6.58768 13.8291C6.47828 13.7197 6.41682 13.5714 6.41682 13.4167V1.51084L4.30515 3.6225C4.25515 3.69087 4.19087 3.74752 4.11676 3.78853C4.04266 3.82954 3.96051 3.85392 3.87603 3.85998C3.79155 3.86604 3.70677 3.85363 3.62757 3.82361C3.54837 3.7936 3.47666 3.74669 3.41742 3.68616C3.35818 3.62563 3.31283 3.55293 3.28452 3.4731C3.25621 3.39328 3.24563 3.30825 3.2535 3.22392C3.26138 3.13959 3.28752 3.05799 3.33011 2.98478C3.37271 2.91157 3.43073 2.84852 3.50015 2.8L5.78682 0.513337C6.11495 0.185619 6.55974 0.00154495 7.02349 0.00154495C7.48724 0.00154495 7.93203 0.185619 8.26015 0.513337L10.5468 2.8C10.6532 2.91159 10.711 3.06074 10.7078 3.21486C10.7045 3.36898 10.6403 3.51554 10.5293 3.6225Z" fill="#ABABAB"/>
</g>
<defs>
<clipPath id="clip0_457_2117">
<rect width="14" height="14" fill="white" transform="translate(8)"/>
</clipPath>
<clipPath id="clip1_457_2117">
<rect width="14" height="14" fill="white" transform="matrix(1 0 0 -1 0 14)"/>
</clipPath>
</defs>
</svg>
