<svg width="40" height="40" viewBox="0 0 40 40" fill="none" xmlns="http://www.w3.org/2000/svg">
<g clip-path="url(#clip0_472_3152)">
<path d="M37.855 6.795C37.3862 6.2324 36.7993 5.77992 36.1359 5.46969C35.4725 5.15947 34.749 4.99911 34.0167 5H7.07L7 4.415C6.85675 3.19903 6.27231 2.07789 5.35748 1.26413C4.44266 0.450372 3.26105 0.000569656 2.03667 0L1.66667 0C1.22464 0 0.800716 0.175595 0.488155 0.488155C0.175595 0.800716 0 1.22464 0 1.66667C0 2.10869 0.175595 2.53262 0.488155 2.84518C0.800716 3.15774 1.22464 3.33333 1.66667 3.33333H2.03667C2.44489 3.33339 2.8389 3.48326 3.14395 3.75453C3.44901 4.02579 3.6439 4.39958 3.69167 4.805L5.985 24.305C6.22309 26.333 7.19746 28.203 8.72318 29.56C10.2489 30.9171 12.2198 31.6667 14.2617 31.6667H31.6667C32.1087 31.6667 32.5326 31.4911 32.8452 31.1785C33.1577 30.866 33.3333 30.442 33.3333 30C33.3333 29.558 33.1577 29.134 32.8452 28.8215C32.5326 28.5089 32.1087 28.3333 31.6667 28.3333H14.2617C13.2301 28.3304 12.2247 28.0085 11.3832 27.4118C10.5418 26.815 9.90552 25.9726 9.56167 25H29.4283C31.3822 25.0001 33.2739 24.3137 34.773 23.0607C36.2722 21.8077 37.2834 20.0678 37.63 18.145L38.9383 10.8883C39.0689 10.1683 39.0396 9.42844 38.8524 8.72106C38.6651 8.01368 38.3246 7.35613 37.855 6.795ZM35.6667 10.2967L34.3567 17.5533C34.1485 18.7083 33.5408 19.7533 32.6398 20.5053C31.7388 21.2573 30.6019 21.6684 29.4283 21.6667H9.03167L7.46333 8.33333H34.0167C34.2615 8.33187 34.5036 8.38437 34.7259 8.48709C34.9481 8.58982 35.145 8.74024 35.3025 8.92768C35.4601 9.11511 35.5744 9.33495 35.6373 9.57156C35.7002 9.80817 35.7103 10.0557 35.6667 10.2967Z" fill="url(#paint0_linear_472_3152)"/>
<path d="M11.6668 40.0006C13.5078 40.0006 15.0001 38.5083 15.0001 36.6673C15.0001 34.8264 13.5078 33.334 11.6668 33.334C9.82588 33.334 8.3335 34.8264 8.3335 36.6673C8.3335 38.5083 9.82588 40.0006 11.6668 40.0006Z" fill="url(#paint1_linear_472_3152)"/>
<path d="M28.3333 40.0006C30.1743 40.0006 31.6667 38.5083 31.6667 36.6673C31.6667 34.8264 30.1743 33.334 28.3333 33.334C26.4924 33.334 25 34.8264 25 36.6673C25 38.5083 26.4924 40.0006 28.3333 40.0006Z" fill="url(#paint2_linear_472_3152)"/>
</g>
<defs>
<linearGradient id="paint0_linear_472_3152" x1="19.5092" y1="0" x2="19.5092" y2="31.6667" gradientUnits="userSpaceOnUse">
<stop stop-color="#FA5D3A"/>
<stop offset="1" stop-color="#FFCE3F"/>
</linearGradient>
<linearGradient id="paint1_linear_472_3152" x1="11.6668" y1="33.334" x2="11.6668" y2="40.0006" gradientUnits="userSpaceOnUse">
<stop stop-color="#FA5D3A"/>
<stop offset="1" stop-color="#FFCE3F"/>
</linearGradient>
<linearGradient id="paint2_linear_472_3152" x1="28.3333" y1="33.334" x2="28.3333" y2="40.0006" gradientUnits="userSpaceOnUse">
<stop stop-color="#FA5D3A"/>
<stop offset="1" stop-color="#FFCE3F"/>
</linearGradient>
<clipPath id="clip0_472_3152">
<rect width="40" height="40" fill="white"/>
</clipPath>
</defs>
</svg>
