<svg width="40" height="40" viewBox="0 0 40 40" fill="none" xmlns="http://www.w3.org/2000/svg">
<g clip-path="url(#clip0_472_3154)">
<path d="M31.6667 1.66602H8.33333C6.12401 1.66866 4.00593 2.54749 2.4437 4.10972C0.88147 5.67195 0.00264643 7.79002 0 9.99935L0 23.3327C0.00264643 25.542 0.88147 27.6601 2.4437 29.2223C4.00593 30.7845 6.12401 31.6634 8.33333 31.666H18.3333V34.9993H11.6667C11.2246 34.9993 10.8007 35.1749 10.4882 35.4875C10.1756 35.8001 10 36.224 10 36.666C10 37.108 10.1756 37.532 10.4882 37.8445C10.8007 38.1571 11.2246 38.3327 11.6667 38.3327H28.3333C28.7754 38.3327 29.1993 38.1571 29.5118 37.8445C29.8244 37.532 30 37.108 30 36.666C30 36.224 29.8244 35.8001 29.5118 35.4875C29.1993 35.1749 28.7754 34.9993 28.3333 34.9993H21.6667V31.666H31.6667C33.876 31.6634 35.9941 30.7845 37.5563 29.2223C39.1185 27.6601 39.9974 25.542 40 23.3327V9.99935C39.9974 7.79002 39.1185 5.67195 37.5563 4.10972C35.9941 2.54749 33.876 1.66866 31.6667 1.66602ZM8.33333 4.99935H31.6667C32.9927 4.99935 34.2645 5.52613 35.2022 6.46381C36.1399 7.4015 36.6667 8.67327 36.6667 9.99935V21.666H3.33333V9.99935C3.33333 8.67327 3.86012 7.4015 4.7978 6.46381C5.73548 5.52613 7.00725 4.99935 8.33333 4.99935ZM31.6667 28.3327H8.33333C7.3029 28.3284 6.29895 28.0059 5.45883 27.4092C4.61872 26.8125 3.98347 25.9709 3.64 24.9993H36.36C36.0165 25.9709 35.3813 26.8125 34.5412 27.4092C33.701 28.0059 32.6971 28.3284 31.6667 28.3327Z" fill="url(#paint0_linear_472_3154)"/>
</g>
<defs>
<linearGradient id="paint0_linear_472_3154" x1="20" y1="1.66602" x2="20" y2="38.3327" gradientUnits="userSpaceOnUse">
<stop stop-color="#FA5D3A"/>
<stop offset="1" stop-color="#FFCE3F"/>
</linearGradient>
<clipPath id="clip0_472_3154">
<rect width="40" height="40" fill="white"/>
</clipPath>
</defs>
</svg>
