<svg width="40" height="40" viewBox="0 0 40 40" fill="none" xmlns="http://www.w3.org/2000/svg">
<g clip-path="url(#clip0_472_3151)">
<path d="M38.3333 36.6667H8.33333C7.00725 36.6667 5.73548 36.1399 4.7978 35.2022C3.86012 34.2645 3.33333 32.9927 3.33333 31.6667V1.66667C3.33333 1.22464 3.15774 0.800716 2.84518 0.488155C2.53262 0.175595 2.10869 0 1.66667 0C1.22464 0 0.800716 0.175595 0.488155 0.488155C0.175595 0.800716 0 1.22464 0 1.66667L0 31.6667C0.00264643 33.876 0.88147 35.9941 2.4437 37.5563C4.00593 39.1185 6.12401 39.9974 8.33333 40H38.3333C38.7754 40 39.1993 39.8244 39.5118 39.5118C39.8244 39.1993 40 38.7754 40 38.3333C40 37.8913 39.8244 37.4674 39.5118 37.1548C39.1993 36.8423 38.7754 36.6667 38.3333 36.6667Z" fill="url(#paint0_linear_472_3151)"/>
<path d="M10.0002 33.334C10.4422 33.334 10.8661 33.1584 11.1787 32.8458C11.4912 32.5333 11.6668 32.1093 11.6668 31.6673V20.0007C11.6668 19.5586 11.4912 19.1347 11.1787 18.8221C10.8661 18.5096 10.4422 18.334 10.0002 18.334C9.55813 18.334 9.13421 18.5096 8.82165 18.8221C8.50909 19.1347 8.3335 19.5586 8.3335 20.0007V31.6673C8.3335 32.1093 8.50909 32.5333 8.82165 32.8458C9.13421 33.1584 9.55813 33.334 10.0002 33.334Z" fill="url(#paint1_linear_472_3151)"/>
<path d="M16.6665 16.6667V31.6666C16.6665 32.1087 16.8421 32.5326 17.1547 32.8452C17.4672 33.1577 17.8912 33.3333 18.3332 33.3333C18.7752 33.3333 19.1991 33.1577 19.5117 32.8452C19.8243 32.5326 19.9999 32.1087 19.9999 31.6666V16.6667C19.9999 16.2246 19.8243 15.8007 19.5117 15.4882C19.1991 15.1756 18.7752 15 18.3332 15C17.8912 15 17.4672 15.1756 17.1547 15.4882C16.8421 15.8007 16.6665 16.2246 16.6665 16.6667Z" fill="url(#paint2_linear_472_3151)"/>
<path d="M25 21.6667V31.6666C25 32.1087 25.1756 32.5326 25.4882 32.8452C25.8007 33.1577 26.2246 33.3333 26.6667 33.3333C27.1087 33.3333 27.5326 33.1577 27.8452 32.8452C28.1578 32.5326 28.3334 32.1087 28.3334 31.6666V21.6667C28.3334 21.2246 28.1578 20.8007 27.8452 20.4882C27.5326 20.1756 27.1087 20 26.6667 20C26.2246 20 25.8007 20.1756 25.4882 20.4882C25.1756 20.8007 25 21.2246 25 21.6667Z" fill="url(#paint3_linear_472_3151)"/>
<path d="M33.3335 15.0007V31.6673C33.3335 32.1093 33.5091 32.5333 33.8217 32.8458C34.1342 33.1584 34.5581 33.334 35.0002 33.334C35.4422 33.334 35.8661 33.1584 36.1787 32.8458C36.4913 32.5333 36.6668 32.1093 36.6668 31.6673V15.0007C36.6668 14.5586 36.4913 14.1347 36.1787 13.8221C35.8661 13.5096 35.4422 13.334 35.0002 13.334C34.5581 13.334 34.1342 13.5096 33.8217 13.8221C33.5091 14.1347 33.3335 14.5586 33.3335 15.0007Z" fill="url(#paint4_linear_472_3151)"/>
<path d="M9.99981 14.9991C10.4418 14.999 10.8657 14.8233 11.1781 14.5107L17.1548 8.53405C17.4725 8.23143 17.8944 8.06262 18.3331 8.06262C18.7719 8.06262 19.1938 8.23143 19.5115 8.53405L23.1315 12.1541C24.0691 13.0914 25.3407 13.618 26.6665 13.618C27.9923 13.618 29.2638 13.0914 30.2015 12.1541L39.5115 2.84405C39.8151 2.52971 39.9831 2.10871 39.9793 1.67172C39.9755 1.23472 39.8002 0.8167 39.4912 0.507687C39.1822 0.198673 38.7641 0.0233916 38.3271 0.0195943C37.8901 0.0157969 37.4691 0.183788 37.1548 0.487384L27.8448 9.79572C27.5323 10.1082 27.1084 10.2837 26.6665 10.2837C26.2245 10.2837 25.8007 10.1082 25.4881 9.79572L21.8681 6.17738C20.9305 5.24003 19.659 4.71345 18.3331 4.71345C17.0073 4.71345 15.7358 5.24003 14.7981 6.17738L8.82147 12.1541C8.58846 12.3871 8.42978 12.6841 8.3655 13.0073C8.30122 13.3306 8.33423 13.6656 8.46034 13.9701C8.58646 14.2746 8.80003 14.5349 9.07404 14.7181C9.34806 14.9012 9.67022 14.999 9.99981 14.9991Z" fill="url(#paint5_linear_472_3151)"/>
</g>
<defs>
<linearGradient id="paint0_linear_472_3151" x1="20" y1="0" x2="20" y2="40" gradientUnits="userSpaceOnUse">
<stop stop-color="#FA5D3A"/>
<stop offset="1" stop-color="#FFCE3F"/>
</linearGradient>
<linearGradient id="paint1_linear_472_3151" x1="10.0002" y1="18.334" x2="10.0002" y2="33.334" gradientUnits="userSpaceOnUse">
<stop stop-color="#FA5D3A"/>
<stop offset="1" stop-color="#FFCE3F"/>
</linearGradient>
<linearGradient id="paint2_linear_472_3151" x1="18.3332" y1="15" x2="18.3332" y2="33.3333" gradientUnits="userSpaceOnUse">
<stop stop-color="#FA5D3A"/>
<stop offset="1" stop-color="#FFCE3F"/>
</linearGradient>
<linearGradient id="paint3_linear_472_3151" x1="26.6667" y1="20" x2="26.6667" y2="33.3333" gradientUnits="userSpaceOnUse">
<stop stop-color="#FA5D3A"/>
<stop offset="1" stop-color="#FFCE3F"/>
</linearGradient>
<linearGradient id="paint4_linear_472_3151" x1="35.0002" y1="13.334" x2="35.0002" y2="33.334" gradientUnits="userSpaceOnUse">
<stop stop-color="#FA5D3A"/>
<stop offset="1" stop-color="#FFCE3F"/>
</linearGradient>
<linearGradient id="paint5_linear_472_3151" x1="24.1564" y1="0.0195312" x2="24.1564" y2="14.9991" gradientUnits="userSpaceOnUse">
<stop stop-color="#FA5D3A"/>
<stop offset="1" stop-color="#FFCE3F"/>
</linearGradient>
<clipPath id="clip0_472_3151">
<rect width="40" height="40" fill="white"/>
</clipPath>
</defs>
</svg>
