<svg width="40" height="40" viewBox="0 0 40 40" fill="none" xmlns="http://www.w3.org/2000/svg">
<g clip-path="url(#clip0_587_2704)">
<path d="M33.3333 11.6667H30.4367C31.379 10.836 32.127 9.80813 32.6276 8.656C33.1282 7.50386 33.3691 6.25568 33.3333 5C33.3333 4.55797 33.1577 4.13405 32.8452 3.82149C32.5326 3.50893 32.1087 3.33333 31.6667 3.33333C31.2246 3.33333 30.8007 3.50893 30.4882 3.82149C30.1756 4.13405 30 4.55797 30 5C30 9.37 26.0483 10.8833 23.0433 11.4017C24.1525 9.43509 24.8202 7.25061 25 5C25 3.67392 24.4732 2.40215 23.5355 1.46447C22.5979 0.526784 21.3261 0 20 0C18.6739 0 17.4021 0.526784 16.4645 1.46447C15.5268 2.40215 15 3.67392 15 5C15.1798 7.25061 15.8475 9.43509 16.9567 11.4017C13.9517 10.8833 10 9.37 10 5C10 4.55797 9.8244 4.13405 9.51184 3.82149C9.19928 3.50893 8.77536 3.33333 8.33333 3.33333C7.89131 3.33333 7.46738 3.50893 7.15482 3.82149C6.84226 4.13405 6.66667 4.55797 6.66667 5C6.63085 6.25568 6.87179 7.50386 7.37239 8.656C7.873 9.80813 8.621 10.836 9.56333 11.6667H6.66667C4.89856 11.6667 3.20286 12.369 1.95262 13.6193C0.702379 14.8695 0 16.5652 0 18.3333L0 20C0 20.8841 0.35119 21.7319 0.976311 22.357C1.60143 22.9821 2.44928 23.3333 3.33333 23.3333V31.6667C3.33598 33.876 4.2148 35.9941 5.77703 37.5563C7.33926 39.1185 9.45734 39.9974 11.6667 40H28.3333C30.5427 39.9974 32.6607 39.1185 34.223 37.5563C35.7852 35.9941 36.664 33.876 36.6667 31.6667V23.3333C37.5507 23.3333 38.3986 22.9821 39.0237 22.357C39.6488 21.7319 40 20.8841 40 20V18.3333C40 16.5652 39.2976 14.8695 38.0474 13.6193C36.7971 12.369 35.1014 11.6667 33.3333 11.6667ZM20 3.33333C20.442 3.33333 20.8659 3.50893 21.1785 3.82149C21.4911 4.13405 21.6667 4.55797 21.6667 5C21.4655 6.77138 20.8979 8.48151 20 10.0217C19.1021 8.48151 18.5345 6.77138 18.3333 5C18.3333 4.55797 18.5089 4.13405 18.8215 3.82149C19.134 3.50893 19.558 3.33333 20 3.33333ZM3.33333 18.3333C3.33333 17.4493 3.68452 16.6014 4.30964 15.9763C4.93476 15.3512 5.78261 15 6.66667 15H18.3333V20H3.33333V18.3333ZM6.66667 31.6667V23.3333H18.3333V36.6667H11.6667C10.3406 36.6667 9.06881 36.1399 8.13113 35.2022C7.19345 34.2645 6.66667 32.9927 6.66667 31.6667ZM33.3333 31.6667C33.3333 32.9927 32.8065 34.2645 31.8689 35.2022C30.9312 36.1399 29.6594 36.6667 28.3333 36.6667H21.6667V23.3333H33.3333V31.6667ZM21.6667 20V15H33.3333C34.2174 15 35.0652 15.3512 35.6904 15.9763C36.3155 16.6014 36.6667 17.4493 36.6667 18.3333V20H21.6667Z" fill="url(#paint0_linear_587_2704)"/>
</g>
<defs>
<linearGradient id="paint0_linear_587_2704" x1="20" y1="0" x2="20" y2="40" gradientUnits="userSpaceOnUse">
<stop stop-color="#FA5D3A"/>
<stop offset="1" stop-color="#FBBC04"/>
</linearGradient>
<clipPath id="clip0_587_2704">
<rect width="40" height="40" fill="white"/>
</clipPath>
</defs>
</svg>
