<svg width="18" height="18" viewBox="0 0 18 18" fill="none" xmlns="http://www.w3.org/2000/svg">
<g clip-path="url(#clip0_472_3895)">
<path d="M10.3837 12.9502L7.9372 15.3967C7.2269 16.088 6.27296 16.4719 5.28179 16.4652C4.29062 16.4586 3.34192 16.062 2.64094 15.3612C1.93996 14.6604 1.54307 13.7118 1.53615 12.7207C1.52923 11.7295 1.91283 10.7755 2.60395 10.065L5.05046 7.61621C5.19109 7.47548 5.27005 7.28465 5.26998 7.0857C5.26991 6.88675 5.19081 6.69597 5.05008 6.55534C4.90935 6.41471 4.71852 6.33575 4.51956 6.33582C4.32061 6.33589 4.12984 6.41499 3.9892 6.55572L1.54345 9.00446C0.555158 9.99325 0.000136807 11.3341 0.000488448 12.7322C0.000840089 14.1302 0.556536 15.4708 1.54533 16.4591C2.53412 17.4474 3.87502 18.0024 5.27303 18.002C6.67104 18.0017 8.01166 17.446 8.99995 16.4572L11.4465 14.0107C11.5831 13.8693 11.6587 13.6798 11.657 13.4832C11.6553 13.2865 11.5764 13.0984 11.4373 12.9593C11.2983 12.8203 11.1102 12.7414 10.9135 12.7397C10.7169 12.738 10.5274 12.8136 10.386 12.9502H10.3837Z" fill="#374957"/>
<path d="M16.4579 1.54607C15.9698 1.05468 15.3891 0.665025 14.7494 0.399688C14.1097 0.134351 13.4237 -0.0013948 12.7311 0.000316027C12.0389 -0.00152277 11.3532 0.133875 10.7137 0.39868C10.0741 0.663485 9.49341 1.05244 9.00511 1.54307L6.55486 3.99032C6.41413 4.13095 6.33503 4.32172 6.33496 4.52068C6.33489 4.71963 6.41386 4.91046 6.55449 5.05119C6.69512 5.19192 6.8859 5.27102 7.08485 5.27109C7.2838 5.27116 7.47463 5.1922 7.61536 5.05157L10.0641 2.60507C10.4133 2.2538 10.8287 1.97529 11.2862 1.78566C11.7437 1.59603 12.2343 1.49904 12.7296 1.50032C13.4753 1.50056 14.2042 1.72189 14.8241 2.13632C15.4441 2.55074 15.9272 3.13966 16.2125 3.82863C16.4978 4.5176 16.5724 5.27568 16.4269 6.00705C16.2814 6.73842 15.9224 7.41023 15.3951 7.93757L12.9486 10.3841C12.8079 10.5248 12.7288 10.7157 12.7288 10.9147C12.7288 11.1137 12.8079 11.3046 12.9486 11.4453C13.0893 11.586 13.2802 11.6651 13.4792 11.6651C13.6783 11.6651 13.8691 11.586 14.0099 11.4453L16.4564 9.00032C17.4434 8.01114 17.9978 6.67089 17.9981 5.2735C17.9984 3.87611 17.4445 2.53564 16.4579 1.54607Z" fill="#374957"/>
<path d="M10.7197 6.21983L6.21969 10.7198C6.14806 10.789 6.09092 10.8718 6.05161 10.9633C6.01231 11.0548 5.99162 11.1532 5.99075 11.2528C5.98989 11.3523 6.00886 11.4511 6.04657 11.5433C6.08428 11.6355 6.13997 11.7192 6.21039 11.7896C6.28081 11.86 6.36455 11.9157 6.45672 11.9534C6.5489 11.9911 6.64766 12.0101 6.74724 12.0093C6.84682 12.0084 6.94524 11.9877 7.03674 11.9484C7.12825 11.9091 7.211 11.8519 7.28019 11.7803L11.7802 7.28032C11.9168 7.13887 11.9924 6.94942 11.9907 6.75277C11.989 6.55613 11.9101 6.36802 11.7711 6.22896C11.632 6.08991 11.4439 6.01103 11.2472 6.00932C11.0506 6.00761 10.8611 6.08321 10.7197 6.21983Z" fill="#374957"/>
</g>
<defs>
<clipPath id="clip0_472_3895">
<rect width="18" height="18" fill="white"/>
</clipPath>
</defs>
</svg>
