<svg width="30" height="30" viewBox="0 0 30 30" fill="none" xmlns="http://www.w3.org/2000/svg">
<g clip-path="url(#clip0_472_2796)">
<path d="M15.2388 24.9975C15.4029 24.9936 15.5662 25.0222 15.7193 25.0814C15.8725 25.1407 16.0124 25.2295 16.1312 25.3428C16.25 25.4562 16.3454 25.5918 16.4117 25.742C16.4781 25.8922 16.5143 26.054 16.5181 26.2181C16.522 26.3823 16.4935 26.5456 16.4342 26.6987C16.375 26.8518 16.2861 26.9918 16.1728 27.1106C16.0594 27.2294 15.9238 27.3247 15.7736 27.3911C15.6234 27.4575 15.4617 27.4936 15.2975 27.4975L15 27.5L14.7025 27.4963C14.5383 27.4924 14.3766 27.4562 14.2264 27.3899C14.0762 27.3235 13.9406 27.2282 13.8272 27.1094C13.7139 26.9906 13.625 26.8506 13.5658 26.6975C13.5065 26.5443 13.478 26.381 13.4819 26.2169C13.4857 26.0527 13.5219 25.8909 13.5883 25.7408C13.6546 25.5906 13.75 25.4549 13.8688 25.3416C13.9876 25.2282 14.1275 25.1394 14.2807 25.0802C14.4338 25.0209 14.5971 24.9924 14.7612 24.9963L15 25L15.2388 24.9975ZM21.9225 23.9563C22.0081 24.0963 22.0653 24.2519 22.0908 24.4141C22.1163 24.5763 22.1096 24.742 22.0711 24.9016C22.0325 25.0612 21.9629 25.2117 21.8662 25.3444C21.7695 25.4771 21.6476 25.5894 21.5075 25.675C21.3382 25.7782 21.1665 25.8774 20.9925 25.9725C20.8485 26.0513 20.6903 26.1009 20.5271 26.1186C20.3638 26.1363 20.1987 26.1216 20.0412 26.0755C19.7229 25.9823 19.4548 25.7665 19.2956 25.4756C19.1365 25.1847 19.0994 24.8425 19.1926 24.5243C19.2858 24.2061 19.5016 23.9379 19.7925 23.7788C19.9319 23.703 20.0695 23.6238 20.205 23.5413C20.4878 23.3687 20.8276 23.3155 21.1496 23.3933C21.4717 23.4711 21.7497 23.6736 21.9225 23.9563ZM9.79625 23.5413C9.93125 23.6238 10.0687 23.7038 10.2087 23.7788C10.4997 23.938 10.7154 24.2064 10.8084 24.5247C10.9015 24.8431 10.8643 25.1853 10.705 25.4762C10.5457 25.7672 10.2774 25.9829 9.95903 26.0759C9.64068 26.169 9.29841 26.1318 9.0075 25.9725C8.83345 25.8775 8.66174 25.7783 8.4925 25.675C8.20955 25.5021 8.00686 25.2239 7.92904 24.9016C7.85121 24.5792 7.90461 24.2392 8.0775 23.9563C8.25039 23.6733 8.5286 23.4706 8.85093 23.3928C9.17325 23.315 9.5133 23.3684 9.79625 23.5413ZM15 7.5C16.9891 7.5 18.8968 8.29018 20.3033 9.6967C21.7098 11.1032 22.5 13.0109 22.5 15C22.5 16.9891 21.7098 18.8968 20.3033 20.3033C18.8968 21.7098 16.9891 22.5 15 22.5C13.0109 22.5 11.1032 21.7098 9.6967 20.3033C8.29018 18.8968 7.5 16.9891 7.5 15C7.5 13.0109 8.29018 11.1032 9.6967 9.6967C11.1032 8.29018 13.0109 7.5 15 7.5ZM25.475 19.2962C25.7659 19.4552 25.9817 19.7232 26.075 20.0413C26.1683 20.3594 26.1315 20.7016 25.9725 20.9925C25.8775 21.1675 25.7775 21.3387 25.675 21.5075C25.5894 21.6476 25.477 21.7695 25.3443 21.8662C25.2116 21.9628 25.0612 22.0324 24.9016 22.071C24.5792 22.1488 24.2392 22.0954 23.9563 21.9225C23.6733 21.7496 23.4706 21.4714 23.3928 21.1491C23.315 20.8267 23.3684 20.4867 23.5413 20.2038C23.6238 20.0688 23.7038 19.9312 23.7788 19.7913C23.8577 19.6473 23.9642 19.5202 24.0922 19.4174C24.2203 19.3146 24.3673 19.238 24.5249 19.1921C24.6826 19.1461 24.8477 19.1316 25.011 19.1495C25.1742 19.1674 25.3323 19.2173 25.4762 19.2962H25.475ZM6.22125 19.7925C6.29705 19.9319 6.37624 20.0695 6.45875 20.205C6.5462 20.3451 6.605 20.5012 6.63177 20.6642C6.65853 20.8272 6.65272 20.9939 6.61467 21.1547C6.57662 21.3154 6.50709 21.467 6.41009 21.6007C6.31309 21.7344 6.19056 21.8476 6.04956 21.9337C5.90857 22.0197 5.75191 22.077 5.58865 22.1022C5.42539 22.1273 5.25877 22.1199 5.0984 22.0802C4.93804 22.0406 4.78712 21.9696 4.65437 21.8713C4.52162 21.773 4.40968 21.6493 4.325 21.5075C4.22175 21.3382 4.12256 21.1665 4.0275 20.9925C3.86837 20.7016 3.83132 20.3594 3.9245 20.0412C4.01769 19.7229 4.23347 19.4548 4.52437 19.2956C4.81528 19.1365 5.15749 19.0994 5.47572 19.1926C5.79394 19.2858 6.06212 19.5016 6.22125 19.7925ZM15 10C13.6739 10 12.4021 10.5268 11.4645 11.4645C10.5268 12.4021 10 13.6739 10 15C10 16.3261 10.5268 17.5979 11.4645 18.5355C12.4021 19.4732 13.6739 20 15 20C16.3261 20 17.5979 19.4732 18.5355 18.5355C19.4732 17.5979 20 16.3261 20 15C20 13.6739 19.4732 12.4021 18.5355 11.4645C17.5979 10.5268 16.3261 10 15 10ZM15 12.5C15.663 12.5 16.2989 12.7634 16.7678 13.2322C17.2366 13.7011 17.5 14.337 17.5 15C17.5 15.663 17.2366 16.2989 16.7678 16.7678C16.2989 17.2366 15.663 17.5 15 17.5C14.337 17.5 13.7011 17.2366 13.2322 16.7678C12.7634 16.2989 12.5 15.663 12.5 15C12.5 14.337 12.7634 13.7011 13.2322 13.2322C13.7011 12.7634 14.337 12.5 15 12.5ZM3.7825 13.4812C3.94667 13.4851 4.10846 13.5213 4.25863 13.5878C4.4088 13.6542 4.54441 13.7496 4.6577 13.8685C4.771 13.9873 4.85977 14.1274 4.91893 14.2806C4.97809 14.4337 5.00649 14.5971 5.0025 14.7612L5 15C5 15.08 5 15.16 5.0025 15.2388C5.01029 15.5703 4.88607 15.8913 4.65715 16.1312C4.42824 16.3712 4.1134 16.5103 3.78188 16.5181C3.45035 16.5259 3.12932 16.4017 2.88939 16.1728C2.64946 15.9439 2.51029 15.629 2.5025 15.2975L2.5 15C2.5 14.9 2.5 14.8 2.50375 14.7025C2.50748 14.5383 2.54352 14.3765 2.60982 14.2263C2.67611 14.076 2.77135 13.9403 2.8901 13.8269C3.00885 13.7135 3.14879 13.6246 3.30191 13.5653C3.45503 13.506 3.61834 13.4774 3.7825 13.4812ZM26.2175 13.4812C26.3817 13.4774 26.545 13.506 26.6981 13.5653C26.8512 13.6246 26.9911 13.7135 27.1099 13.8269C27.2287 13.9403 27.3239 14.076 27.3902 14.2263C27.4565 14.3765 27.4925 14.5383 27.4963 14.7025L27.5 15L27.4963 15.2975C27.4924 15.4617 27.4562 15.6234 27.3899 15.7736C27.3235 15.9238 27.2282 16.0594 27.1094 16.1728C26.9906 16.2861 26.8506 16.375 26.6975 16.4342C26.5443 16.4935 26.381 16.522 26.2169 16.5181C26.0527 16.5143 25.8909 16.4781 25.7408 16.4117C25.5906 16.3454 25.4549 16.25 25.3416 16.1312C25.2282 16.0124 25.1394 15.8725 25.0802 15.7193C25.0209 15.5662 24.9924 15.4029 24.9963 15.2388L25 15L24.9975 14.7612C24.9935 14.5971 25.0219 14.4337 25.0811 14.2806C25.1402 14.1274 25.229 13.9873 25.3423 13.8685C25.4556 13.7496 25.5912 13.6542 25.7414 13.5878C25.8915 13.5213 26.0533 13.4851 26.2175 13.4812ZM25.675 8.4925C25.7775 8.66125 25.8775 8.83375 25.9725 9.0075C26.0513 9.15154 26.1009 9.3097 26.1186 9.47293C26.1363 9.63616 26.1216 9.80127 26.0755 9.95884C26.0294 10.1164 25.9526 10.2634 25.8497 10.3913C25.7468 10.5192 25.6197 10.6256 25.4756 10.7044C25.1847 10.8635 24.8425 10.9006 24.5243 10.8074C24.2061 10.7142 23.9379 10.4984 23.7788 10.2075C23.7029 10.0681 23.6237 9.93059 23.5413 9.795C23.4538 9.65486 23.395 9.49878 23.3682 9.33577C23.3415 9.17277 23.3473 9.00607 23.3853 8.84533C23.4234 8.68458 23.4929 8.53297 23.5899 8.39926C23.6869 8.26555 23.8094 8.1524 23.9504 8.06633C24.0914 7.98026 24.2481 7.923 24.4113 7.89784C24.5746 7.87268 24.7412 7.88013 24.9016 7.91976C25.062 7.95939 25.2129 8.03041 25.3456 8.12872C25.4784 8.22702 25.5903 8.35067 25.675 8.4925ZM6.04375 8.0775C6.18388 8.16308 6.30578 8.27543 6.40248 8.40813C6.49918 8.54084 6.56878 8.69129 6.60732 8.8509C6.64586 9.01051 6.65258 9.17615 6.62708 9.33836C6.60159 9.50056 6.54439 9.65616 6.45875 9.79625C6.37625 9.93125 6.29625 10.0687 6.22125 10.2087C6.06195 10.4997 5.79362 10.7154 5.47528 10.8084C5.15693 10.9015 4.81466 10.8643 4.52375 10.705C4.23284 10.5457 4.01713 10.2774 3.92406 9.95903C3.831 9.64068 3.8682 9.29841 4.0275 9.0075C4.1225 8.8325 4.2225 8.66125 4.325 8.4925C4.41058 8.35237 4.52293 8.23047 4.65563 8.13377C4.78834 8.03707 4.93879 7.96747 5.0984 7.92893C5.25801 7.89039 5.42365 7.88368 5.58586 7.90917C5.74806 7.93466 5.90366 7.99186 6.04375 8.0775ZM20.9925 4.0275C21.1675 4.1225 21.3387 4.2225 21.5075 4.325C21.7905 4.49789 21.9931 4.7761 22.071 5.09843C22.1488 5.42075 22.0954 5.7608 21.9225 6.04375C21.7496 6.3267 21.4714 6.52939 21.1491 6.60721C20.8267 6.68504 20.4867 6.63164 20.2038 6.45875C20.0682 6.37631 19.9306 6.29712 19.7913 6.22125C19.5003 6.06195 19.2846 5.79362 19.1916 5.47528C19.0985 5.15693 19.1357 4.81466 19.295 4.52375C19.4543 4.23284 19.7226 4.01713 20.041 3.92406C20.3593 3.831 20.7016 3.8682 20.9925 4.0275ZM10.705 4.52375C10.7839 4.66785 10.8336 4.82609 10.8513 4.98942C10.869 5.15276 10.8543 5.31797 10.8081 5.47563C10.7619 5.63328 10.6851 5.78029 10.582 5.90823C10.479 6.03617 10.3517 6.14254 10.2075 6.22125C10.0681 6.29713 9.93059 6.37632 9.795 6.45875C9.51242 6.62159 9.17738 6.66753 8.8614 6.58678C8.54541 6.50603 8.2735 6.30498 8.10369 6.02653C7.93388 5.74808 7.87962 5.41429 7.9525 5.0964C8.02537 4.7785 8.21961 4.50168 8.49375 4.325C8.6625 4.2225 8.835 4.1225 9.00875 4.0275C9.29951 3.86845 9.64153 3.83138 9.95962 3.92444C10.2777 4.0175 10.5458 4.23306 10.705 4.52375ZM15.2975 2.50375C15.629 2.51154 15.9439 2.65071 16.1728 2.89064C16.4017 3.13057 16.5259 3.4516 16.5181 3.78312C16.5103 4.11465 16.3712 4.42949 16.1312 4.6584C15.8913 4.88732 15.5703 5.01154 15.2388 5.00375L15 5L14.7612 5.0025C14.4297 5.01029 14.1087 4.88607 13.8688 4.65715C13.6288 4.42824 13.4897 4.1134 13.4819 3.78188C13.4741 3.45035 13.5983 3.12932 13.8272 2.88939C14.0561 2.64946 14.371 2.51029 14.7025 2.5025L15 2.5L15.2975 2.50375Z" fill="#636363"/>
</g>
<defs>
<clipPath id="clip0_472_2796">
<rect width="30" height="30" fill="white"/>
</clipPath>
</defs>
</svg>
