<svg width="75" height="75" viewBox="0 0 75 75" fill="none" xmlns="http://www.w3.org/2000/svg">
<g clip-path="url(#clip0_587_2773)">
<path d="M1.02188 37.5C1.1125 37.2094 1.15313 36.9062 1.25625 36.6188L9.6875 13.4094C10.7885 10.3978 12.7874 7.79674 15.414 5.95755C18.0406 4.11835 21.1685 3.12965 24.375 3.125H50.625C53.832 3.12943 56.9603 4.11842 59.5871 5.95826C62.2138 7.79811 64.2124 10.4001 65.3125 13.4125L73.75 36.6188C73.8531 36.9062 73.8937 37.2094 73.9844 37.5H1.02188ZM62.5 43.75V50C62.5 50.8288 62.1708 51.6237 61.5847 52.2097C60.9987 52.7958 60.2038 53.125 59.375 53.125C58.5462 53.125 57.7513 52.7958 57.1653 52.2097C56.5792 51.6237 56.25 50.8288 56.25 50V43.75H18.75V50C18.75 50.8288 18.4208 51.6237 17.8347 52.2097C17.2487 52.7958 16.4538 53.125 15.625 53.125C14.7962 53.125 14.0013 52.7958 13.4153 52.2097C12.8292 51.6237 12.5 50.8288 12.5 50V43.75H0V50C0.00399492 53.0368 0.892829 56.0066 2.55781 58.5462C4.22279 61.0859 6.59175 63.0853 9.375 64.3V68.75C9.375 70.4076 10.0335 71.9973 11.2056 73.1694C12.3777 74.3415 13.9674 75 15.625 75C17.2826 75 18.8723 74.3415 20.0444 73.1694C21.2165 71.9973 21.875 70.4076 21.875 68.75V65.625H53.125V68.75C53.125 70.4076 53.7835 71.9973 54.9556 73.1694C56.1277 74.3415 57.7174 75 59.375 75C61.0326 75 62.6223 74.3415 63.7944 73.1694C64.9665 71.9973 65.625 70.4076 65.625 68.75V64.3C68.4082 63.0853 70.7772 61.0859 72.4422 58.5462C74.1072 56.0066 74.996 53.0368 75 50V43.75H62.5Z" fill="url(#paint0_linear_587_2773)"/>
</g>
<defs>
<linearGradient id="paint0_linear_587_2773" x1="37.5" y1="3.125" x2="37.5" y2="75" gradientUnits="userSpaceOnUse">
<stop stop-color="#FFCE3F"/>
<stop offset="1" stop-color="#FA5D3A"/>
</linearGradient>
<clipPath id="clip0_587_2773">
<rect width="75" height="75" fill="white"/>
</clipPath>
</defs>
</svg>
