<svg width="42" height="42" viewBox="0 0 42 42" fill="none" xmlns="http://www.w3.org/2000/svg">
<g clip-path="url(#clip0_587_1898)">
<path d="M29.75 0C29.2859 0 28.8408 0.184374 28.5126 0.512563C28.1844 0.840752 28 1.28587 28 1.75C28 6.91075 23.4798 8.75 19.25 8.75H7C5.14349 8.75 3.36301 9.4875 2.05025 10.8003C0.737498 12.113 0 13.8935 0 15.75L0 19.25C0.00382229 20.2978 0.244058 21.3312 0.702804 22.2732C1.16155 23.2153 1.82698 24.0416 2.6495 24.6908L8.9005 38.6418C9.34507 39.6412 10.0698 40.4903 10.987 41.0863C11.9041 41.6823 12.9744 41.9997 14.0683 42C14.9385 41.9994 15.7949 41.7812 16.5593 41.3652C17.3237 40.9492 17.972 40.3487 18.4451 39.6182C18.9182 38.8877 19.201 38.0505 19.268 37.1828C19.3349 36.3151 19.1837 35.4444 18.8283 34.65L14.9783 26.25H19.25C23.4798 26.25 28 28.0893 28 33.25C28 33.7141 28.1844 34.1592 28.5126 34.4874C28.8408 34.8156 29.2859 35 29.75 35C30.2141 35 30.6593 34.8156 30.9874 34.4874C31.3156 34.1592 31.5 33.7141 31.5 33.25V1.75C31.5 1.28587 31.3156 0.840752 30.9874 0.512563C30.6593 0.184374 30.2141 0 29.75 0V0ZM15.6398 36.0832C15.7557 36.345 15.8044 36.6316 15.7816 36.917C15.7587 37.2023 15.665 37.4775 15.509 37.7175C15.3529 37.9575 15.1394 38.1548 14.8878 38.2914C14.6362 38.4281 14.3545 38.4998 14.0683 38.5C13.6507 38.4997 13.2422 38.3782 12.8924 38.1501C12.5426 37.9221 12.2665 37.5974 12.0978 37.2155L7.18375 26.25H11.1283L15.6398 36.0832ZM28 25.55C25.4998 23.6236 22.4041 22.633 19.25 22.75H7C6.07174 22.75 5.1815 22.3813 4.52513 21.7249C3.86875 21.0685 3.5 20.1783 3.5 19.25V15.75C3.5 14.8217 3.86875 13.9315 4.52513 13.2751C5.1815 12.6187 6.07174 12.25 7 12.25H19.25C22.4031 12.3695 25.4986 11.382 28 9.45875V25.55ZM41.825 27.041C41.7224 27.2467 41.5802 27.4303 41.4065 27.581C41.2329 27.7318 41.0313 27.8469 40.8132 27.9197C40.5951 27.9925 40.3648 28.0216 40.1354 28.0054C39.9061 27.9891 39.6822 27.9278 39.4765 27.825L35.9765 26.075C35.5611 25.8675 35.2451 25.5036 35.0981 25.0631C34.9511 24.6227 34.985 24.1419 35.1925 23.7265C35.4 23.3111 35.764 22.9951 36.2044 22.8481C36.6448 22.7011 37.1256 22.735 37.541 22.9425L41.041 24.6925C41.4543 24.8998 41.7687 25.2623 41.9156 25.7007C42.0625 26.1391 42.0299 26.6178 41.825 27.0322V27.041ZM35.1925 11.291C35.0897 11.0853 35.0284 10.8614 35.0121 10.6321C34.9959 10.4027 35.025 10.1724 35.0978 9.95428C35.1706 9.73618 35.2857 9.53456 35.4365 9.36095C35.5872 9.18735 35.7708 9.04515 35.9765 8.9425L39.4765 7.1925C39.8919 6.98503 40.3727 6.95108 40.8131 7.09811C41.2536 7.24514 41.6175 7.5611 41.825 7.9765C42.0325 8.3919 42.0664 8.87269 41.9194 9.31312C41.7724 9.75355 41.4564 10.1175 41.041 10.325L37.541 12.075C37.3353 12.1778 37.1114 12.2391 36.8821 12.2554C36.6527 12.2716 36.4224 12.2425 36.2043 12.1697C35.9862 12.0969 35.7846 11.9818 35.611 11.831C35.4374 11.6803 35.2952 11.4967 35.1925 11.291ZM35 17.5C35 17.0359 35.1844 16.5908 35.5126 16.2626C35.8408 15.9344 36.2859 15.75 36.75 15.75H40.25C40.7141 15.75 41.1593 15.9344 41.4874 16.2626C41.8156 16.5908 42 17.0359 42 17.5C42 17.9641 41.8156 18.4092 41.4874 18.7374C41.1593 19.0656 40.7141 19.25 40.25 19.25H36.75C36.2859 19.25 35.8408 19.0656 35.5126 18.7374C35.1844 18.4092 35 17.9641 35 17.5Z" fill="url(#paint0_linear_587_1898)"/>
</g>
<defs>
<linearGradient id="paint0_linear_587_1898" x1="21.0047" y1="0" x2="21.0047" y2="42" gradientUnits="userSpaceOnUse">
<stop stop-color="#FA5D3A"/>
<stop offset="1" stop-color="#FBBC04"/>
</linearGradient>
<clipPath id="clip0_587_1898">
<rect width="42" height="42" fill="white"/>
</clipPath>
</defs>
</svg>
