<svg width="27" height="25" viewBox="0 0 27 25" fill="none" xmlns="http://www.w3.org/2000/svg">
<g clip-path="url(#clip0_453_2273)">
<path d="M4.86573 20.2853C4.32311 21.0301 4.11847 21.9332 4.29679 22.7962L4.64232 24.4662L6.47266 24.0977C7.41835 23.9071 8.25432 23.3816 8.7967 22.6367L18.4469 9.38749L14.516 7.03612L4.86573 20.2853Z" fill="#272727"/>
<path d="M21.3816 1.48451C21.1235 1.32992 20.8332 1.22452 20.5272 1.17433C20.2212 1.12413 19.9056 1.13013 19.5984 1.19198C19.2912 1.25383 18.9985 1.37032 18.7369 1.53478C18.4753 1.69924 18.2501 1.90846 18.074 2.15046L15.5385 5.63264L19.4695 7.98402L22.006 4.50248C22.1824 4.26063 22.3061 3.99069 22.3702 3.70809C22.4342 3.42548 22.4374 3.13575 22.3794 2.85547C22.3214 2.57518 22.2034 2.30983 22.0322 2.07459C21.861 1.83936 21.64 1.63884 21.3816 1.48451V1.48451Z" fill="#272727"/>
</g>
<defs>
<clipPath id="clip0_453_2273">
<rect width="21.8264" height="19.9367" fill="white" transform="matrix(0.980327 -0.197379 0.202603 0.979261 0.603027 4.94336)"/>
</clipPath>
</defs>
</svg>
