<svg width="40" height="40" viewBox="0 0 40 40" fill="none" xmlns="http://www.w3.org/2000/svg">
<g clip-path="url(#clip0_472_3155)">
<path d="M20.0002 13.334C18.6816 13.334 17.3927 13.725 16.2964 14.4575C15.2 15.1901 14.3456 16.2313 13.841 17.4494C13.3364 18.6676 13.2044 20.008 13.4616 21.3013C13.7188 22.5945 14.3538 23.7823 15.2861 24.7147C16.2185 25.647 17.4064 26.282 18.6996 26.5392C19.9928 26.7965 21.3332 26.6644 22.5514 26.1598C23.7696 25.6553 24.8108 24.8008 25.5433 23.7045C26.2758 22.6081 26.6668 21.3192 26.6668 20.0007C26.6668 18.2325 25.9645 16.5368 24.7142 15.2866C23.464 14.0364 21.7683 13.334 20.0002 13.334ZM20.0002 23.334C19.3409 23.334 18.6964 23.1385 18.1483 22.7722C17.6001 22.4059 17.1729 21.8853 16.9206 21.2763C16.6683 20.6672 16.6023 19.997 16.7309 19.3503C16.8595 18.7037 17.177 18.1098 17.6431 17.6436C18.1093 17.1775 18.7033 16.86 19.3499 16.7314C19.9965 16.6027 20.6667 16.6688 21.2758 16.9211C21.8849 17.1733 22.4055 17.6006 22.7717 18.1488C23.138 18.6969 23.3335 19.3414 23.3335 20.0007C23.3335 20.8847 22.9823 21.7326 22.3572 22.3577C21.7321 22.9828 20.8842 23.334 20.0002 23.334Z" fill="url(#paint0_linear_472_3155)"/>
<path d="M35.4903 23.1667L34.7503 22.74C35.0835 20.9274 35.0835 19.0693 34.7503 17.2567L35.4903 16.83C36.0594 16.5017 36.5582 16.0645 36.9583 15.5434C37.3584 15.0224 37.652 14.4276 37.8222 13.793C37.9925 13.1585 38.036 12.4966 37.9505 11.8453C37.865 11.1939 37.652 10.5657 37.3237 9.99667C36.9953 9.42761 36.5582 8.92878 36.0371 8.52867C35.516 8.12856 34.9212 7.83501 34.2867 7.66477C33.6521 7.49453 32.9903 7.45094 32.3389 7.53648C31.6875 7.62202 31.0594 7.83503 30.4903 8.16333L29.7487 8.59167C28.3479 7.39486 26.7381 6.46708 25.0003 5.855V5C25.0003 3.67392 24.4735 2.40215 23.5359 1.46447C22.5982 0.526784 21.3264 0 20.0003 0C18.6742 0 17.4025 0.526784 16.4648 1.46447C15.5271 2.40215 15.0003 3.67392 15.0003 5V5.855C13.2626 6.46928 11.6534 7.39933 10.2536 8.59833L9.50865 8.16667C8.35938 7.50363 6.99379 7.32429 5.71229 7.6681C4.43079 8.01192 3.33836 8.85073 2.67532 10C2.01227 11.1493 1.83294 12.5149 2.17675 13.7964C2.52057 15.0779 3.35938 16.1703 4.50865 16.8333L5.24865 17.26C4.9155 19.0726 4.9155 20.9307 5.24865 22.7433L4.50865 23.17C3.35938 23.833 2.52057 24.9255 2.17675 26.207C1.83294 27.4885 2.01227 28.8541 2.67532 30.0033C3.33836 31.1526 4.43079 31.9914 5.71229 32.3352C6.99379 32.679 8.35938 32.4997 9.50865 31.8367L10.2503 31.4083C11.6516 32.6053 13.262 33.5331 15.0003 34.145V35C15.0003 36.3261 15.5271 37.5979 16.4648 38.5355C17.4025 39.4732 18.6742 40 20.0003 40C21.3264 40 22.5982 39.4732 23.5359 38.5355C24.4735 37.5979 25.0003 36.3261 25.0003 35V34.145C26.738 33.5307 28.3472 32.6007 29.747 31.4017L30.492 31.8317C31.6413 32.4947 33.0068 32.674 34.2883 32.3302C35.5698 31.9864 36.6623 31.1476 37.3253 29.9983C37.9884 28.8491 38.1677 27.4835 37.8239 26.202C37.4801 24.9205 36.6413 23.828 35.492 23.165L35.4903 23.1667ZM31.2437 16.8733C31.8081 18.9184 31.8081 21.0782 31.2437 23.1233C31.1451 23.4793 31.1676 23.8579 31.3076 24.1997C31.4475 24.5415 31.6971 24.8271 32.017 25.0117L33.8237 26.055C34.2067 26.276 34.4862 26.6401 34.6008 27.0672C34.7153 27.4944 34.6555 27.9495 34.4345 28.3325C34.2135 28.7155 33.8494 28.995 33.4222 29.1096C32.9951 29.2242 32.54 29.1643 32.157 28.9433L30.347 27.8967C30.0268 27.7112 29.654 27.6376 29.2874 27.6874C28.9208 27.7372 28.5811 27.9076 28.322 28.1717C26.8385 29.6861 24.9696 30.7666 22.917 31.2967C22.5587 31.3888 22.2413 31.5975 22.0146 31.8899C21.788 32.1823 21.6651 32.5417 21.6653 32.9117V35C21.6653 35.442 21.4897 35.866 21.1772 36.1785C20.8646 36.4911 20.4407 36.6667 19.9986 36.6667C19.5566 36.6667 19.1327 36.4911 18.8201 36.1785C18.5076 35.866 18.332 35.442 18.332 35V32.9133C18.3322 32.5434 18.2093 32.1839 17.9827 31.8915C17.756 31.5991 17.4386 31.3904 17.0803 31.2983C15.0276 30.7661 13.1592 29.6833 11.677 28.1667C11.4179 27.9026 11.0782 27.7322 10.7116 27.6824C10.3449 27.6326 9.97216 27.7062 9.65198 27.8917L7.84532 28.9367C7.6557 29.0478 7.44597 29.1204 7.22819 29.1502C7.01042 29.1799 6.7889 29.1663 6.57641 29.1102C6.36391 29.054 6.16462 28.9563 5.99002 28.8228C5.81541 28.6893 5.66895 28.5226 5.55904 28.3322C5.44914 28.1419 5.37798 27.9317 5.34964 27.7137C5.32131 27.4957 5.33638 27.2743 5.39397 27.0622C5.45156 26.8501 5.55053 26.6514 5.6852 26.4777C5.81987 26.304 5.98757 26.1586 6.17865 26.05L7.98532 25.0067C8.30523 24.8221 8.55477 24.5365 8.69475 24.1947C8.83472 23.8529 8.8572 23.4743 8.75865 23.1183C8.19424 21.0732 8.19424 18.9134 8.75865 16.8683C8.85543 16.5131 8.83188 16.1359 8.69167 15.7955C8.55147 15.4551 8.30251 15.1707 7.98365 14.9867L6.17698 13.9433C5.79397 13.7223 5.51443 13.3582 5.39988 12.9311C5.28533 12.504 5.34514 12.0488 5.56615 11.6658C5.78716 11.2828 6.15128 11.0033 6.57839 10.8887C7.00551 10.7742 7.46063 10.834 7.84365 11.055L9.65365 12.1017C9.97295 12.2875 10.345 12.362 10.7112 12.3134C11.0774 12.2649 11.4172 12.096 11.677 11.8333C13.1605 10.3189 15.0294 9.23837 17.082 8.70833C17.4414 8.61594 17.7596 8.40625 17.9864 8.1125C18.2131 7.81875 18.3353 7.45774 18.3337 7.08667V5C18.3337 4.55797 18.5092 4.13405 18.8218 3.82149C19.1344 3.50893 19.5583 3.33333 20.0003 3.33333C20.4423 3.33333 20.8663 3.50893 21.1788 3.82149C21.4914 4.13405 21.667 4.55797 21.667 5V7.08667C21.6668 7.4566 21.7897 7.81607 22.0163 8.10847C22.2429 8.40086 22.5604 8.60955 22.9187 8.70167C24.972 9.23359 26.841 10.3165 28.3236 11.8333C28.5828 12.0974 28.9224 12.2678 29.2891 12.3176C29.6557 12.3674 30.0285 12.2938 30.3487 12.1083L32.1553 11.0633C32.3449 10.9522 32.5547 10.8796 32.7724 10.8498C32.9902 10.8201 33.2117 10.8337 33.4242 10.8898C33.6367 10.946 33.836 11.0437 34.0106 11.1772C34.1852 11.3107 34.3317 11.4774 34.4416 11.6678C34.5515 11.8581 34.6227 12.0683 34.651 12.2863C34.6793 12.5043 34.6643 12.7257 34.6067 12.9378C34.5491 13.1499 34.4501 13.3486 34.3154 13.5223C34.1808 13.696 34.0131 13.8414 33.822 13.95L32.0153 14.9933C31.6971 15.1778 31.4488 15.4625 31.3092 15.8028C31.1696 16.1432 31.1466 16.5202 31.2437 16.875V16.8733Z" fill="url(#paint1_linear_472_3155)"/>
</g>
<defs>
<linearGradient id="paint0_linear_472_3155" x1="20.0002" y1="13.334" x2="20.0002" y2="26.6673" gradientUnits="userSpaceOnUse">
<stop stop-color="#FA5D3A"/>
<stop offset="1" stop-color="#FFCE3F"/>
</linearGradient>
<linearGradient id="paint1_linear_472_3155" x1="20.0003" y1="0" x2="20.0003" y2="40" gradientUnits="userSpaceOnUse">
<stop stop-color="#FA5D3A"/>
<stop offset="1" stop-color="#FFCE3F"/>
</linearGradient>
<clipPath id="clip0_472_3155">
<rect width="40" height="40" fill="white"/>
</clipPath>
</defs>
</svg>
