<svg width="40" height="42" viewBox="0 0 40 42" fill="none" xmlns="http://www.w3.org/2000/svg">
<path d="M20.4998 21.385C21.3891 20.5767 22.1024 19.577 22.5913 18.4538C23.0802 17.3305 23.3332 16.11 23.3332 14.875C23.3332 12.5544 22.4552 10.3288 20.8924 8.68782C19.3296 7.04687 17.21 6.125 14.9998 6.125C12.7897 6.125 10.6701 7.04687 9.10728 8.68782C7.54448 10.3288 6.6665 12.5544 6.6665 14.875C6.66649 16.11 6.91951 17.3305 7.40838 18.4538C7.89725 19.577 8.61054 20.5767 9.49984 21.385C7.16674 22.4943 5.18728 24.2857 3.79814 26.545C2.409 28.8042 1.66896 31.4358 1.6665 34.125C1.6665 34.5891 1.8421 35.0343 2.15466 35.3624C2.46722 35.6906 2.89114 35.875 3.33317 35.875C3.7752 35.875 4.19912 35.6906 4.51168 35.3624C4.82424 35.0343 4.99984 34.5891 4.99984 34.125C4.99984 31.3402 6.05341 28.6695 7.92877 26.7004C9.80413 24.7312 12.3477 23.625 14.9998 23.625C17.652 23.625 20.1955 24.7312 22.0709 26.7004C23.9463 28.6695 24.9998 31.3402 24.9998 34.125C24.9998 34.5891 25.1754 35.0343 25.488 35.3624C25.8006 35.6906 26.2245 35.875 26.6665 35.875C27.1085 35.875 27.5325 35.6906 27.845 35.3624C28.1576 35.0343 28.3332 34.5891 28.3332 34.125C28.3307 31.4358 27.5907 28.8042 26.2015 26.545C24.8124 24.2857 22.8329 22.4943 20.4998 21.385ZM14.9998 20.125C14.0109 20.125 13.0442 19.8171 12.222 19.2402C11.3997 18.6633 10.7589 17.8434 10.3804 16.8841C10.002 15.9248 9.90298 14.8692 10.0959 13.8508C10.2888 12.8324 10.765 11.8969 11.4643 11.1627C12.1636 10.4285 13.0545 9.92845 14.0244 9.72588C14.9943 9.52331 15.9996 9.62727 16.9133 10.0246C17.8269 10.422 18.6078 11.0949 19.1572 11.9583C19.7066 12.8216 19.9998 13.8366 19.9998 14.875C19.9998 16.2674 19.4731 17.6027 18.5354 18.5873C17.5977 19.5719 16.3259 20.125 14.9998 20.125ZM31.2332 20.685C32.2998 19.4238 32.9965 17.8658 33.2395 16.1986C33.4825 14.5313 33.2614 12.8259 32.6028 11.2875C31.9442 9.74912 30.8762 8.44339 29.5273 7.52749C28.1784 6.61159 26.6062 6.12455 24.9998 6.125C24.5578 6.125 24.1339 6.30937 23.8213 6.63756C23.5088 6.96575 23.3332 7.41087 23.3332 7.875C23.3332 8.33913 23.5088 8.78425 23.8213 9.11244C24.1339 9.44063 24.5578 9.625 24.9998 9.625C26.3259 9.625 27.5977 10.1781 28.5354 11.1627C29.4731 12.1473 29.9998 13.4826 29.9998 14.875C29.9975 15.7942 29.7653 16.6966 29.3266 17.492C28.8879 18.2874 28.258 18.9479 27.4998 19.4075C27.2527 19.5572 27.0464 19.7709 26.9004 20.0283C26.7545 20.2857 26.674 20.5781 26.6665 20.8775C26.6595 21.1746 26.7247 21.4686 26.8559 21.732C26.9872 21.9953 27.1801 22.2191 27.4165 22.3825L28.0665 22.8375L28.2832 22.96C30.2922 23.9605 31.987 25.543 33.1681 27.521C34.3492 29.4991 34.9674 31.7904 34.9498 34.125C34.9498 34.5891 35.1254 35.0343 35.438 35.3624C35.7506 35.6906 36.1745 35.875 36.6165 35.875C37.0585 35.875 37.4825 35.6906 37.795 35.3624C38.1076 35.0343 38.2832 34.5891 38.2832 34.125C38.2968 31.4395 37.6562 28.7949 36.4223 26.4426C35.1884 24.0903 33.4021 22.1083 31.2332 20.685Z" fill="url(#paint0_linear_472_3153)"/>
<defs>
<linearGradient id="paint0_linear_472_3153" x1="19.9749" y1="6.125" x2="19.9749" y2="35.875" gradientUnits="userSpaceOnUse">
<stop stop-color="#FA5D3A"/>
<stop offset="1" stop-color="#FFCE3F"/>
</linearGradient>
</defs>
</svg>
